<svg xmlns="http://www.w3.org/2000/svg" width="100" height="101" viewBox="0 0 100 101" fill="none"><metadata><rdf:RDF xmlns:rdf="http://www.w3.org/1999/02/22-rdf-syntax-ns#" xmlns:dc="http://purl.org/dc/elements/1.1/"><rdf:Description><dc:creator>RealFaviconGenerator</dc:creator><dc:source>https://realfavicongenerator.net</dc:source></rdf:Description></rdf:RDF></metadata><path fill-rule="evenodd" clip-rule="evenodd" d="M50.0007 82.5999C32.1852 82.5999 17.7421 68.1576 17.7419 50.3421C17.7419 38.1161 24.5445 27.4796 34.5701 22.0081C32.0685 26.5919 30.6453 31.849 30.6453 37.4388C30.6454 55.2542 45.0877 69.6964 62.9031 69.6966C68.493 69.6966 73.7509 68.2745 78.3347 65.7728C72.8633 75.7982 62.2265 82.5998 50.0007 82.5999Z" fill="#0C6AEA"></path><path fill-rule="evenodd" clip-rule="evenodd" d="M32.2578 100.342C14.4425 100.342 0.000141144 85.8994 0 68.084C0 55.8575 6.80277 45.2203 16.8291 39.749C14.3271 44.333 12.9033 49.5904 12.9033 55.1807C12.9034 72.9961 27.3457 87.4383 45.1611 87.4385C50.751 87.4385 56.009 86.0164 60.5928 83.5146C55.1213 93.5402 44.4837 100.342 32.2578 100.342Z" fill="#0C6AEA"></path><ellipse cx="67.742" cy="32.2581" rx="32.258" ry="32.2581" transform="rotate(-180 67.742 32.2581)" fill="#0C6AEA"></ellipse></svg>