<svg width="100" height="100" viewBox="0 0 100 100" fill="none" xmlns="http://www.w3.org/2000/svg">
<path d="M90 0C95.5228 1.28852e-06 100 4.47715 100 10V90C100 95.5228 95.5228 100 90 100H10C4.47715 100 8.05347e-08 95.5228 0 90V10C1.28855e-06 4.47715 4.47715 8.05322e-08 10 0H90ZM29.4336 43.6455C23.2177 47.0378 19 53.6318 19 61.2119C19 72.2576 27.9543 81.2119 39 81.2119C46.5798 81.2119 53.174 76.9948 56.5664 70.7793C53.7246 72.3301 50.4654 73.2119 47 73.2119C35.9543 73.2119 27 64.2576 27 53.2119C27 49.7464 27.8827 46.4874 29.4336 43.6455ZM40.4336 32.6455C34.2177 36.0378 30 42.6318 30 50.2119C30 61.2576 38.9543 70.2119 50 70.2119C57.5798 70.2119 64.174 65.9948 67.5664 59.7793C64.7246 61.3301 61.4654 62.2119 58 62.2119C46.9543 62.2119 38 53.2576 38 42.2119C38 38.7464 38.8827 35.4874 40.4336 32.6455ZM61 19C49.9543 19 41 27.9543 41 39C41 50.0457 49.9543 59 61 59C72.0457 59 81 50.0457 81 39C81 27.9543 72.0457 19 61 19Z" fill="#0C6AEA"/>
</svg>
